<?xml version="1.0" encoding="utf-8"?>
<!-- Generator: Adobe Illustrator 23.0.5, SVG Export Plug-In . SVG Version: 6.00 Build 0)  -->
<svg version="1.1" id="Layer_1" xmlns="http://www.w3.org/2000/svg" xmlns:xlink="http://www.w3.org/1999/xlink" x="0px" y="0px"
	 viewBox="0 0 1920.01 777.15" style="enable-background:new 0 0 1920.01 777.15;" xml:space="preserve">
<style type="text/css">
	.st0{fill:none;stroke:url(#SVGID_4_);stroke-width:25;stroke-miterlimit:10;}
	.st1{fill:#FFFFFF;}
	.st2{fill:#E5E5E5;}
	.st3{fill:url(#SVGID_5_);}
	.st4{fill:#6F75FD;}
</style>
<g>
	<defs>
		<path id="SVGID_1_" d="M1263.73,298.24l-95.75-121.4L771.55,560.16h-177.1L198.01,176.84v383.32h-198v-559h283.83L683,395.65
			l399.16-394.5h203.39l105.32,147.42L1263.73,298.24L1263.73,298.24z M1429.33,564.16h-334.76L600.2,1.16h275.41l386.34,456.27
			L1646.3,3.16h275.41L1429.33,564.16L1429.33,564.16z"/>
	</defs>
	<linearGradient id="SVGID_2_" gradientUnits="userSpaceOnUse" x1="0.0115" y1="282.656" x2="1921.7091" y2="282.656">
		<stop  offset="2.717173e-07" style="stop-color:#6F75FD"/>
		<stop  offset="1" style="stop-color:#3EDFCE"/>
	</linearGradient>
	<use xlink:href="#SVGID_1_"  style="overflow:visible;fill:url(#SVGID_2_);"/>
	<clipPath id="SVGID_3_">
		<use xlink:href="#SVGID_1_"  style="overflow:visible;"/>
	</clipPath>
</g>
<linearGradient id="SVGID_4_" gradientUnits="userSpaceOnUse" x1="1682.5116" y1="441.1469" x2="1909.3839" y2="441.1469">
	<stop  offset="2.717173e-07" style="stop-color:#6F75FD"/>
	<stop  offset="1" style="stop-color:#3EDFCE"/>
</linearGradient>
<path class="st0" d="M1886.82,423.72l-161.62-93.31c-13.42-7.75-30.19,1.94-30.19,17.43v186.62c0,15.49,16.77,25.18,30.19,17.43
	l161.62-93.31C1900.24,450.83,1900.24,431.46,1886.82,423.72z"/>
<g>
	<path class="st1" d="M148.85,753.56h-24.57v-87.38h-0.78l-38.87,87.38H64.26l-39.49-88.63h-0.78v88.63H0.52V642.55h39.49
		l34.21,78.68h0.62l33.9-78.68h40.11V753.56z"/>
	<path class="st1" d="M172.64,753.56V642.55h24.57v111.02H172.64z"/>
	<path class="st1" d="M348.18,753.56h-32.65L279.3,712.2l-36.07,41.36h-32.5l52.71-58.62l-47.73-52.4h31.72l32.19,36.54l32.65-36.54
		h31.1l-47.73,52.4L348.18,753.56z"/>
	<path class="st1" d="M462.72,725.73h0.78l42.49-83.18h28.14l-58.04,111.02h-26.43l-58.04-111.02h28.45L462.72,725.73z"/>
	<path class="st1" d="M554.35,753.56V642.55h24.57v111.02H554.35z"/>
	<path class="st1" d="M721.26,702.95c3.06,4.2,4.59,10.44,4.59,18.74c0,10.78-3.06,18.79-9.17,24.02
		c-6.12,5.24-15.76,7.85-28.92,7.85h-84.9V642.55h83.18c23.94,0,35.92,9.54,35.92,28.61c0,5.91-1.14,10.73-3.42,14.46
		c-2.28,3.73-5.55,6.32-9.8,7.77v0.78C714.03,695.83,718.2,698.75,721.26,702.95z M691.56,684.29c2.43-2.12,3.65-5.42,3.65-9.87
		c0-4.56-1.22-7.88-3.65-9.95c-2.44-2.07-6.25-3.11-11.43-3.11h-52.71v26.12h52.71C685.32,687.48,689.13,686.42,691.56,684.29z
		 M694.83,731.17c2.75-2.38,4.12-6.17,4.12-11.35c0-5.18-1.38-8.99-4.12-11.43c-2.75-2.43-7.13-3.65-13.14-3.65h-54.26v30.01h54.26
		C687.7,734.75,692.08,733.56,694.83,731.17z"/>
	<path class="st1" d="M770.01,686.7h81.32v18.66h-81.32v28.61h86.14v19.59H745.44V642.55h108.68v19.59h-84.12V686.7z"/>
	<path class="st2" d="M1057.8,753.56h-28.61l-25.5-42.29h-48.51v42.29h-24.57V642.55h84.74c13.99,0,24.18,2.72,30.55,8.16
		c6.38,5.44,9.56,14.07,9.56,25.89c0,9.54-2.33,16.71-7,21.53c-4.67,4.82-10.88,7.96-18.66,9.41v0.93L1057.8,753.56z M1024.3,688.18
		c2.64-2.33,3.96-5.93,3.96-10.81c0-4.87-1.32-8.47-3.96-10.81c-2.64-2.33-6.82-3.5-12.52-3.5h-56.6v28.61h56.6
		C1017.48,691.68,1021.65,690.51,1024.3,688.18z"/>
	<path class="st2" d="M1099.78,686.7h81.32v18.66h-81.32v28.61h86.14v19.59h-110.71V642.55h108.68v19.59h-84.12V686.7z"/>
	<path class="st2" d="M1295.7,666.8c-6.22-4.56-15.03-6.84-26.43-6.84c-12.96,0-23.12,3.24-30.48,9.72
		c-7.36,6.48-11.04,15.94-11.04,28.38c0,12.44,3.68,21.9,11.04,28.38c7.36,6.48,17.52,9.72,30.48,9.72
		c11.71,0,20.65-2.38,26.82-7.15c6.17-4.77,9.51-11.09,10.03-18.97h29.23c-0.21,9.64-2.98,17.96-8.32,24.96
		c-5.34,7-12.91,12.36-22.7,16.09c-9.79,3.73-21.48,5.6-35.06,5.6c-13.68,0-25.68-2.18-36-6.53c-10.32-4.35-18.32-10.91-24.02-19.67
		c-5.7-8.76-8.55-19.56-8.55-32.42c0-12.85,2.85-23.66,8.55-32.42c5.7-8.76,13.71-15.32,24.02-19.67c10.31-4.35,22.31-6.53,36-6.53
		c13.47,0,25.06,1.81,34.75,5.44c9.69,3.63,17.15,8.78,22.39,15.47c5.23,6.69,8.11,14.49,8.63,23.4h-28.92
		C1305.39,677.01,1301.91,671.36,1295.7,666.8z"/>
	<path class="st2" d="M1472.01,654.29c12.54,9.9,18.81,24.49,18.81,43.77s-6.27,33.87-18.81,43.77
		c-12.54,9.9-29.7,14.85-51.47,14.85c-21.77,0-38.92-4.95-51.46-14.85c-12.54-9.9-18.81-24.49-18.81-43.77s6.27-33.87,18.81-43.77
		c12.54-9.9,29.7-14.85,51.46-14.85C1442.32,639.44,1459.47,644.39,1472.01,654.29z M1452.42,726.51
		c7.56-6.43,11.35-15.91,11.35-28.45c0-12.54-3.79-22.03-11.35-28.45c-7.57-6.43-18.19-9.64-31.88-9.64s-24.31,3.21-31.87,9.64
		c-7.57,6.43-11.35,15.91-11.35,28.45c0,12.54,3.78,22.03,11.35,28.45c7.57,6.43,18.19,9.64,31.87,9.64
		S1444.85,732.94,1452.42,726.51z"/>
	<path class="st2" d="M1637.45,753.56h-28.61l-25.5-42.29h-48.51v42.29h-24.57V642.55H1595c13.99,0,24.18,2.72,30.55,8.16
		c6.38,5.44,9.56,14.07,9.56,25.89c0,9.54-2.33,16.71-7,21.53c-4.67,4.82-10.88,7.96-18.66,9.41v0.93L1637.45,753.56z
		 M1603.94,688.18c2.64-2.33,3.96-5.93,3.96-10.81c0-4.87-1.32-8.47-3.96-10.81c-2.64-2.33-6.82-3.5-12.52-3.5h-56.6v28.61h56.6
		C1597.13,691.68,1601.3,690.51,1603.94,688.18z"/>
	<path class="st2" d="M1766.19,655.92c10.16,8.92,15.24,22.96,15.24,42.14c0,19.18-5.08,33.22-15.24,42.14
		c-10.16,8.92-24.93,13.37-44.31,13.37h-67.01V642.55h67.01C1741.26,642.55,1756.03,647,1766.19,655.92z M1679.43,662.45v71.21
		h37.16c25.19,0,37.78-11.87,37.78-35.61c0-23.74-12.59-35.61-37.78-35.61H1679.43z"/>
	<path class="st2" d="M1878.84,661.98c-5.75-2.69-13.92-4.04-24.49-4.04c-19.8,0-29.7,4.77-29.7,14.3c0,3.84,1.35,6.58,4.04,8.24
		c2.69,1.66,7.05,2.8,13.06,3.42l41.98,3.73c11.61,1.04,20.47,4.07,26.59,9.1c6.12,5.03,9.17,12.88,9.17,23.56
		c0,13.27-5.34,22.65-16.01,28.14c-10.68,5.49-26.43,8.24-47.27,8.24c-20.21,0-35.66-2.98-46.33-8.94
		c-10.68-5.96-16.22-16.45-16.64-31.49h27.52c0.62,8.29,3.96,13.97,10.03,17.03c6.06,3.06,14.85,4.59,26.35,4.59
		c22.7,0,34.05-5.29,34.05-15.86c0-4.56-1.43-7.83-4.28-9.8c-2.85-1.97-7.02-3.21-12.52-3.73l-41.83-4.2
		c-11.71-1.14-20.6-4.04-26.67-8.71c-6.06-4.66-9.1-11.92-9.1-21.77c0-22.91,19.38-34.36,58.15-34.36c18.86,0,33.61,2.8,44.24,8.4
		c10.62,5.6,16.14,15.03,16.56,28.3h-27.52C1887.72,669.4,1884.59,664.68,1878.84,661.98z"/>
</g>
<linearGradient id="SVGID_5_" gradientUnits="userSpaceOnUse" x1="450.6625" y1="693.6006" x2="466.8228" y2="665.6102">
	<stop  offset="2.717173e-07" style="stop-color:#6F75FD"/>
	<stop  offset="1" style="stop-color:#3EDFCE"/>
</linearGradient>
<path class="st3" d="M463.27,699.96l15.36-26.61c0.31-0.53-0.08-1.2-0.69-1.2h-30.72c-0.61,0-1,0.66-0.69,1.2l15.36,26.61
	C462.2,700.49,462.97,700.49,463.27,699.96z"/>
<circle class="st4" cx="1857.51" cy="532.66" r="14.5"/>
<g>
	<path class="st4" d="M1652.77,465.54L1652.77,465.54c1.45,0,2.63-1.18,2.63-2.63V414c0-1.45-1.18-2.63-2.63-2.63l0,0
		c-1.45,0-2.63,1.18-2.63,2.63v48.91C1650.14,464.36,1651.32,465.54,1652.77,465.54z"/>
	<path class="st4" d="M1636.19,447.18L1636.19,447.18c1.45,0,2.63-1.18,2.63-2.63v-12.18c0-1.45-1.18-2.63-2.63-2.63l0,0
		c-1.45,0-2.63,1.18-2.63,2.63v12.18C1633.55,446,1634.73,447.18,1636.19,447.18z"/>
	<path class="st4" d="M1771.07,447.18L1771.07,447.18c1.45,0,2.63-1.18,2.63-2.63v-12.18c0-1.45-1.18-2.63-2.63-2.63h0
		c-1.45,0-2.63,1.18-2.63,2.63v12.18C1768.44,446,1769.62,447.18,1771.07,447.18z"/>
	<path class="st4" d="M1785.64,441.36h1c1.18,0,2.13-0.95,2.13-2.13v-1.55c0-1.18-0.95-2.13-2.13-2.13h-1
		c-1.18,0-2.13,0.95-2.13,2.13v1.55C1783.5,440.41,1784.46,441.36,1785.64,441.36z"/>
	<path class="st4" d="M1620.46,441.36h1.19c1.13,0,2.04-0.91,2.04-2.04v-1.74c0-1.13-0.91-2.04-2.04-2.04h-1.19
		c-1.13,0-2.04,0.91-2.04,2.04v1.74C1618.42,440.45,1619.33,441.36,1620.46,441.36z"/>
	<path class="st4" d="M1669.29,458.22L1669.29,458.22c1.45,0,2.63-1.18,2.63-2.63v-34.26c0-1.45-1.18-2.63-2.63-2.63l0,0
		c-1.45,0-2.63,1.18-2.63,2.63v34.26C1666.65,457.04,1667.83,458.22,1669.29,458.22z"/>
	<path class="st4" d="M1719.59,465.54L1719.59,465.54c1.45,0,2.63-1.18,2.63-2.63V414c0-1.45-1.18-2.63-2.63-2.63l0,0
		c-1.45,0-2.63,1.18-2.63,2.63v48.91C1716.96,464.36,1718.14,465.54,1719.59,465.54z"/>
	<path class="st4" d="M1736.85,487.51L1736.85,487.51c1.45,0,2.63-1.18,2.63-2.63v-92.84c0-1.45-1.18-2.63-2.63-2.63l0,0
		c-1.45,0-2.63,1.18-2.63,2.63v92.84C1734.21,486.33,1735.39,487.51,1736.85,487.51z"/>
	<path class="st4" d="M1752.73,414v48.91c0,1.45,1.18,2.63,2.63,2.63l0,0c1.45,0,2.63-1.18,2.63-2.63V414
		c0-1.45-1.18-2.63-2.63-2.63l0,0C1753.91,411.37,1752.73,412.55,1752.73,414z"/>
</g>
</svg>
