<?xml version="1.0" encoding="utf-8"?>
<!-- Generator: Adobe Illustrator 23.0.5, SVG Export Plug-In . SVG Version: 6.00 Build 0)  -->
<svg version="1.1" id="Layer_1" xmlns="http://www.w3.org/2000/svg" xmlns:xlink="http://www.w3.org/1999/xlink" x="0px" y="0px"
	 viewBox="0 0 1920.01 777.15" style="enable-background:new 0 0 1920.01 777.15;" xml:space="preserve">
<style type="text/css">
	.st0{fill:#F7F7F9;}
	.st1{fill:#6F75FD;}
	.st2{fill:none;stroke:url(#SVGID_4_);stroke-width:25;stroke-miterlimit:10;}
	.st3{fill:#FFFFFF;}
	.st4{fill:#E5E5E5;}
	.st5{fill:url(#SVGID_5_);}
</style>
<g>
	<defs>
		<path id="SVGID_1_" d="M1262.87,307.59l-95.75-121.4L770.69,569.51h-177.1L197.16,186.19v383.32h-198v-559h283.83L682.14,405
			l399.16-394.5h203.39L1390,157.93L1262.87,307.59L1262.87,307.59z M1428.48,573.51h-334.76l-494.38-563h275.41l386.34,456.27
			l384.34-454.27h275.41L1428.48,573.51L1428.48,573.51z"/>
	</defs>
	<linearGradient id="SVGID_2_" gradientUnits="userSpaceOnUse" x1="-0.843" y1="292.0067" x2="1920.8546" y2="292.0067">
		<stop  offset="2.717173e-07" style="stop-color:#6F75FD"/>
		<stop  offset="1" style="stop-color:#3EDFCE"/>
	</linearGradient>
	<use xlink:href="#SVGID_1_"  style="overflow:visible;fill:url(#SVGID_2_);"/>
	<clipPath id="SVGID_3_">
		<use xlink:href="#SVGID_1_"  style="overflow:visible;"/>
	</clipPath>
</g>
<path class="st0" d="M37.64,655.12v29.93h99.52v27.07H37.64v50.52H1.8V626.52h139.37v28.6H37.64z"/>
<path class="st0" d="M335.34,640.63c15.7,12.08,23.54,30.06,23.54,53.95c0,23.9-7.85,41.88-23.54,53.95
	c-15.7,12.07-37.72,18.11-66.06,18.11c-28.34,0-50.36-6.04-66.06-18.11c-15.7-12.07-23.54-30.06-23.54-53.95
	c0-23.89,7.85-41.88,23.54-53.95c15.7-12.07,37.72-18.11,66.06-18.11C297.62,622.52,319.64,628.55,335.34,640.63z M306.55,726.52
	c8.58-7.31,12.87-17.95,12.87-31.93c0-13.98-4.29-24.62-12.87-31.93c-8.58-7.31-21-10.96-37.27-10.96
	c-16.27,0-28.69,3.66-37.27,10.96c-8.58,7.31-12.87,17.95-12.87,31.93c0,13.98,4.29,24.63,12.87,31.93
	c8.58,7.31,21,10.96,37.27,10.96C285.55,737.48,297.98,733.83,306.55,726.52z"/>
<path class="st0" d="M565.55,762.64H523.8l-28.98-48.24h-56.43v48.24h-35.84V626.52h108.86c17.92,0,30.88,3.5,38.89,10.49
	c8.01,6.99,12.01,17.86,12.01,32.6c0,11.7-2.7,20.47-8.1,26.31c-5.4,5.85-12.87,9.79-22.4,11.82v1.33L565.55,762.64z M518.46,683.33
	c2.92-2.54,4.38-6.54,4.38-12.01c0-5.34-1.46-9.31-4.38-11.92c-2.93-2.6-7.56-3.91-13.92-3.91h-66.16v31.65h66.16
	C510.9,687.15,515.53,685.88,518.46,683.33z"/>
<path class="st1" d="M1067.53,762.64h-41.75l-28.98-48.24h-56.43v48.24h-35.84V626.52h108.86c17.92,0,30.88,3.5,38.89,10.49
	c8.01,6.99,12.01,17.86,12.01,32.6c0,11.7-2.7,20.47-8.1,26.31c-5.4,5.85-12.87,9.79-22.4,11.82v1.33L1067.53,762.64z
	 M1020.44,683.33c2.92-2.54,4.38-6.54,4.38-12.01c0-5.34-1.46-9.31-4.38-11.92c-2.93-2.6-7.56-3.91-13.92-3.91h-66.16v31.65h66.16
	C1012.87,687.15,1017.51,685.88,1020.44,683.33z"/>
<path class="st1" d="M1257.99,656.07h-61.01v106.57h-35.84V656.07h-60.82v-29.55h157.67V656.07z"/>
<path class="st1" d="M1299.55,762.64V626.52h35.84v136.12H1299.55z"/>
<path class="st1" d="M1481.53,652.45c-6.42-2.92-15.67-4.38-27.74-4.38c-11.57,0-20.08,1.27-25.55,3.81
	c-5.47,2.55-8.2,6.36-8.2,11.44c0,4.07,1.52,6.96,4.58,8.68c3.05,1.71,8.07,2.96,15.06,3.72l52.62,4.58
	c15,1.4,26.34,5.28,34.03,11.63c7.69,6.36,11.53,16.14,11.53,29.36c0,11.57-3.15,20.69-9.44,27.36
	c-6.29,6.67-15.35,11.34-27.17,14.01c-11.82,2.67-26.82,4-44.99,4c-17.54,0-32.1-1.43-43.66-4.29
	c-11.57-2.86-20.56-7.91-26.98-15.16c-6.42-7.25-9.82-17.28-10.2-30.12h40.8c1.02,9.03,4.92,15.22,11.73,18.59
	c6.8,3.37,16.75,5.05,29.84,5.05c12.96,0,22.56-1.4,28.79-4.2c6.23-2.79,9.34-7.05,9.34-12.77c0-4.83-1.62-8.29-4.86-10.39
	c-3.24-2.1-7.98-3.46-14.2-4.1l-51.67-5.15c-15.13-1.53-26.57-5.21-34.32-11.06c-7.75-5.84-11.63-15.06-11.63-27.64
	c0-15.38,6.55-26.37,19.64-32.98c13.09-6.61,31.84-9.91,56.24-9.91c24.53,0,43.53,3.37,57,10.1c13.47,6.74,20.46,18.43,20.97,35.08
	h-40.8C1491.54,660.46,1487.94,655.37,1481.53,652.45z"/>
<path class="st1" d="M1724.89,656.07h-61.01v106.57h-35.84V656.07h-60.82v-29.55h157.67V656.07z"/>
<path class="st1" d="M1861.88,652.45c-6.42-2.92-15.67-4.38-27.74-4.38c-11.57,0-20.08,1.27-25.55,3.81
	c-5.47,2.55-8.2,6.36-8.2,11.44c0,4.07,1.52,6.96,4.58,8.68c3.05,1.71,8.07,2.96,15.06,3.72l52.62,4.58
	c15,1.4,26.34,5.28,34.03,11.63c7.69,6.36,11.53,16.14,11.53,29.36c0,11.57-3.15,20.69-9.44,27.36
	c-6.29,6.67-15.35,11.34-27.17,14.01c-11.82,2.67-26.82,4-44.99,4c-17.54,0-32.1-1.43-43.66-4.29
	c-11.57-2.86-20.56-7.91-26.98-15.16c-6.42-7.25-9.82-17.28-10.2-30.12h40.8c1.02,9.03,4.92,15.22,11.73,18.59
	c6.8,3.37,16.75,5.05,29.84,5.05c12.96,0,22.56-1.4,28.79-4.2c6.23-2.79,9.34-7.05,9.34-12.77c0-4.83-1.62-8.29-4.86-10.39
	c-3.24-2.1-7.98-3.46-14.2-4.1l-51.67-5.15c-15.13-1.53-26.57-5.21-34.32-11.06c-7.75-5.84-11.63-15.06-11.63-27.64
	c0-15.38,6.55-26.37,19.64-32.98c13.09-6.61,31.84-9.91,56.24-9.91c24.53,0,43.53,3.37,57,10.1c13.47,6.74,20.46,18.43,20.97,35.08
	h-40.8C1871.89,660.46,1868.29,655.37,1861.88,652.45z"/>
<g>
	<linearGradient id="SVGID_4_" gradientUnits="userSpaceOnUse" x1="1718.5443" y1="465.9001" x2="1913.6295" y2="465.9001">
		<stop  offset="2.717173e-07" style="stop-color:#6F75FD"/>
		<stop  offset="1" style="stop-color:#3EDFCE"/>
	</linearGradient>
	<path class="st2" d="M1891.07,448.47l-129.83-74.96c-13.42-7.75-30.19,1.94-30.19,17.43v149.91c0,15.49,16.77,25.18,30.19,17.43
		l129.83-74.96C1904.48,475.58,1904.48,456.22,1891.07,448.47z"/>
	<circle class="st1" cx="1870.28" cy="544.31" r="12.42"/>
	<g>
		<path class="st1" d="M1694.85,486.8L1694.85,486.8c1.25,0,2.26-1.01,2.26-2.26v-41.9c0-1.25-1.01-2.26-2.26-2.26l0,0
			c-1.25,0-2.26,1.01-2.26,2.26v41.9C1692.6,485.79,1693.61,486.8,1694.85,486.8z"/>
		<path class="st1" d="M1680.64,471.07L1680.64,471.07c1.25,0,2.26-1.01,2.26-2.26v-10.44c0-1.25-1.01-2.26-2.26-2.26l0,0
			c-1.25,0-2.26,1.01-2.26,2.26v10.44C1678.39,470.06,1679.4,471.07,1680.64,471.07z"/>
		<path class="st1" d="M1796.21,471.07L1796.21,471.07c1.25,0,2.26-1.01,2.26-2.26v-10.44c0-1.25-1.01-2.26-2.26-2.26l0,0
			c-1.25,0-2.26,1.01-2.26,2.26v10.44C1793.96,470.06,1794.97,471.07,1796.21,471.07z"/>
		<path class="st1" d="M1808.69,466.08h0.86c1.01,0,1.83-0.82,1.83-1.83v-1.33c0-1.01-0.82-1.83-1.83-1.83h-0.86
			c-1.01,0-1.83,0.82-1.83,1.83v1.33C1806.87,465.27,1807.68,466.08,1808.69,466.08z"/>
		<path class="st1" d="M1667.16,466.08h1.02c0.96,0,1.75-0.78,1.75-1.75v-1.49c0-0.96-0.78-1.75-1.75-1.75h-1.02
			c-0.96,0-1.75,0.78-1.75,1.75v1.49C1665.42,465.3,1666.2,466.08,1667.16,466.08z"/>
		<path class="st1" d="M1709,480.53L1709,480.53c1.25,0,2.26-1.01,2.26-2.26v-29.35c0-1.25-1.01-2.26-2.26-2.26l0,0
			c-1.25,0-2.26,1.01-2.26,2.26v29.35C1706.75,479.51,1707.76,480.53,1709,480.53z"/>
		<path class="st1" d="M1752.11,486.8L1752.11,486.8c1.25,0,2.26-1.01,2.26-2.26v-41.9c0-1.25-1.01-2.26-2.26-2.26l0,0
			c-1.25,0-2.26,1.01-2.26,2.26v41.9C1749.85,485.79,1750.86,486.8,1752.11,486.8z"/>
		<path class="st1" d="M1766.89,505.62L1766.89,505.62c1.25,0,2.26-1.01,2.26-2.26v-79.55c0-1.25-1.01-2.26-2.26-2.26l0,0
			c-1.25,0-2.26,1.01-2.26,2.26v79.55C1764.63,504.61,1765.64,505.62,1766.89,505.62z"/>
		<path class="st1" d="M1780.5,442.64v41.9c0,1.25,1.01,2.26,2.26,2.26l0,0c1.25,0,2.26-1.01,2.26-2.26v-41.9
			c0-1.25-1.01-2.26-2.26-2.26l0,0C1781.51,440.38,1780.5,441.4,1780.5,442.64z"/>
	</g>
</g>
<g>
	<path class="st3" d="M335.85,506.86h-18.11v-64.41h-0.57l-28.65,64.41h-15.01l-29.11-65.33h-0.57v65.33h-17.31v-81.83h29.11
		l25.21,57.99h0.46l24.99-57.99h29.57V506.86z"/>
	<path class="st3" d="M353.39,506.86v-81.83h18.11v81.83H353.39z"/>
	<path class="st3" d="M482.78,506.86h-24.07l-26.7-30.49l-26.59,30.49h-23.95l38.85-43.21l-35.19-38.62h23.38l23.72,26.93
		l24.07-26.93h22.92l-35.19,38.62L482.78,506.86z"/>
	<path class="st3" d="M567.21,486.35h0.57l31.32-61.32h20.74l-42.78,81.83h-19.48l-42.78-81.83h20.97L567.21,486.35z"/>
	<path class="st3" d="M634.75,506.86v-81.83h18.11v81.83H634.75z"/>
	<path class="st3" d="M757.78,469.56c2.25,3.09,3.38,7.7,3.38,13.81c0,7.95-2.25,13.85-6.76,17.71c-4.51,3.86-11.61,5.79-21.32,5.79
		h-62.58v-81.83h61.32c17.65,0,26.47,7.03,26.47,21.09c0,4.36-0.84,7.91-2.52,10.66c-1.68,2.75-4.09,4.66-7.22,5.73v0.57
		C752.45,464.31,755.53,466.46,757.78,469.56z M735.89,455.81c1.79-1.56,2.69-3.99,2.69-7.28c0-3.36-0.9-5.81-2.69-7.34
		c-1.8-1.53-4.6-2.29-8.42-2.29h-38.85v19.25h38.85C731.29,458.16,734.1,457.37,735.89,455.81z M738.3,490.36
		c2.02-1.76,3.04-4.55,3.04-8.37c0-3.82-1.01-6.63-3.04-8.42c-2.03-1.79-5.25-2.69-9.68-2.69h-40V493h40
		C733.05,493,736.27,492.12,738.3,490.36z"/>
	<path class="st3" d="M793.71,457.58h59.94v13.75h-59.94v21.09h63.49v14.44h-81.6v-81.83h80.11v14.44h-62V457.58z"/>
	<path class="st4" d="M1005.85,506.86h-21.09l-18.8-31.17h-35.76v31.17H912.1v-81.83h62.46c10.31,0,17.82,2.01,22.52,6.02
		c4.7,4.01,7.05,10.37,7.05,19.08c0,7.03-1.72,12.32-5.16,15.87c-3.44,3.55-8.02,5.87-13.75,6.93v0.69L1005.85,506.86z
		 M981.15,458.67c1.95-1.72,2.92-4.37,2.92-7.96c0-3.59-0.97-6.25-2.92-7.97c-1.95-1.72-5.03-2.58-9.23-2.58h-41.72v21.09h41.72
		C976.13,461.25,979.21,460.39,981.15,458.67z"/>
	<path class="st4" d="M1036.8,457.58h59.94v13.75h-59.94v21.09h63.49v14.44h-81.6v-81.83h80.11v14.44h-62V457.58z"/>
	<path class="st4" d="M1181.2,442.91c-4.58-3.36-11.08-5.04-19.48-5.04c-9.55,0-17.04,2.39-22.46,7.16
		c-5.43,4.78-8.14,11.75-8.14,20.92c0,9.17,2.71,16.14,8.14,20.92c5.42,4.78,12.91,7.16,22.46,7.16c8.63,0,15.22-1.76,19.77-5.27
		c4.55-3.51,7.01-8.18,7.39-13.98h21.55c-0.15,7.11-2.2,13.24-6.13,18.4c-3.94,5.16-9.51,9.11-16.73,11.86
		c-7.22,2.75-15.84,4.13-25.84,4.13c-10.09,0-18.93-1.6-26.53-4.81c-7.6-3.21-13.51-8.04-17.71-14.5c-4.2-6.46-6.3-14.42-6.3-23.9
		c0-9.47,2.1-17.44,6.3-23.9c4.2-6.46,10.1-11.29,17.71-14.5c7.6-3.21,16.45-4.81,26.53-4.81c9.93,0,18.47,1.34,25.62,4.01
		c7.14,2.67,12.64,6.47,16.5,11.4c3.86,4.93,5.98,10.68,6.36,17.25h-21.32C1188.35,450.44,1185.79,446.28,1181.2,442.91z"/>
	<path class="st4" d="M1311.17,433.69c9.24,7.3,13.87,18.05,13.87,32.26c0,14.21-4.62,24.97-13.87,32.26
		c-9.25,7.3-21.89,10.95-37.94,10.95c-16.05,0-28.69-3.65-37.94-10.95c-9.25-7.3-13.87-18.05-13.87-32.26
		c0-14.21,4.62-24.97,13.87-32.26c9.24-7.3,21.89-10.95,37.94-10.95C1289.28,422.74,1301.92,426.39,1311.17,433.69z M1296.73,486.92
		c5.58-4.74,8.37-11.73,8.37-20.97c0-9.24-2.79-16.24-8.37-20.97c-5.58-4.74-13.41-7.11-23.5-7.11s-17.92,2.37-23.49,7.11
		c-5.58,4.74-8.37,11.73-8.37,20.97c0,9.25,2.79,16.24,8.37,20.97c5.58,4.74,13.41,7.11,23.49,7.11S1291.15,491.66,1296.73,486.92z"
		/>
	<path class="st4" d="M1433.11,506.86h-21.09l-18.8-31.17h-35.76v31.17h-18.11v-81.83h62.46c10.31,0,17.82,2.01,22.52,6.02
		c4.7,4.01,7.05,10.37,7.05,19.08c0,7.03-1.72,12.32-5.16,15.87c-3.44,3.55-8.02,5.87-13.75,6.93v0.69L1433.11,506.86z
		 M1408.41,458.67c1.95-1.72,2.92-4.37,2.92-7.96c0-3.59-0.97-6.25-2.92-7.97c-1.95-1.72-5.03-2.58-9.23-2.58h-41.72v21.09h41.72
		C1403.39,461.25,1406.47,460.39,1408.41,458.67z"/>
	<path class="st4" d="M1528.01,434.89c7.49,6.57,11.23,16.92,11.23,31.06c0,14.14-3.74,24.49-11.23,31.06
		c-7.49,6.57-18.38,9.86-32.66,9.86h-49.4v-81.83h49.4C1509.63,425.03,1520.52,428.32,1528.01,434.89z M1464.06,439.7v52.49h27.39
		c18.57,0,27.85-8.75,27.85-26.25c0-17.5-9.28-26.25-27.85-26.25H1464.06z"/>
	<path class="st4" d="M1611.04,439.36c-4.24-1.99-10.26-2.98-18.05-2.98c-14.59,0-21.89,3.51-21.89,10.54
		c0,2.83,0.99,4.85,2.98,6.07c1.99,1.22,5.2,2.06,9.63,2.52l30.94,2.75c8.56,0.76,15.09,3,19.6,6.7c4.51,3.71,6.76,9.49,6.76,17.36
		c0,9.78-3.94,16.7-11.8,20.74c-7.87,4.05-19.48,6.07-34.84,6.07c-14.9,0-26.29-2.2-34.15-6.59c-7.87-4.39-11.96-12.13-12.26-23.21
		h20.29c0.46,6.11,2.92,10.3,7.39,12.55c4.47,2.25,10.95,3.38,19.43,3.38c16.73,0,25.1-3.9,25.1-11.69c0-3.36-1.05-5.77-3.15-7.22
		c-2.1-1.45-5.18-2.37-9.23-2.75l-30.83-3.09c-8.64-0.84-15.19-2.98-19.66-6.42c-4.47-3.44-6.7-8.79-6.7-16.05
		c0-16.89,14.29-25.33,42.86-25.33c13.91,0,24.77,2.06,32.61,6.19c7.83,4.13,11.9,11.08,12.21,20.86h-20.29
		C1617.59,444.82,1615.28,441.35,1611.04,439.36z"/>
</g>
<linearGradient id="SVGID_5_" gradientUnits="userSpaceOnUse" x1="555.6625" y1="460.6006" x2="571.8228" y2="432.6102">
	<stop  offset="2.717173e-07" style="stop-color:#6F75FD"/>
	<stop  offset="1" style="stop-color:#3EDFCE"/>
</linearGradient>
<path class="st5" d="M568.27,466.96l15.36-26.61c0.31-0.53-0.08-1.2-0.69-1.2h-30.72c-0.61,0-1,0.66-0.69,1.2l15.36,26.61
	C567.2,467.49,567.97,467.49,568.27,466.96z"/>
<polygon class="st1" points="783.11,732.16 755.01,732.16 734.01,732.16 766.86,668.16 784.32,668.16 812.01,727.16 811.86,727.16 
	828.88,762.64 867.54,762.64 798.9,626.52 753.15,626.52 684.13,762.64 723.79,762.64 799.13,762.64 "/>
</svg>
